<?xml version="1.0" encoding="utf-8"?>
<!-- Generator: Adobe Illustrator 16.0.0, SVG Export Plug-In . SVG Version: 6.00 Build 0)  -->
<!DOCTYPE svg PUBLIC "-//W3C//DTD SVG 1.1//EN" "http://www.w3.org/Graphics/SVG/1.1/DTD/svg11.dtd">
<svg version="1.1" id="Capa_1" xmlns="http://www.w3.org/2000/svg" xmlns:xlink="http://www.w3.org/1999/xlink" x="0px" y="0px"
	 width="184px" height="46px" viewBox="0 0 184 46" enable-background="new 0 0 184 46" xml:space="preserve">
<g>
	<g>
		<path fill="#FFFFFF" d="M55.754,32.059V17.725c0-5.252,3.442-8.195,8.65-8.195c4.53,0,8.249,3.036,8.249,7.476
			c0,4.614-3.088,7.773-8.312,7.773h-1.526v-5.116c2.33,0,3.795-0.315,3.795-2.657c0-1.241-0.941-2.343-2.543-2.343
			c-1.392,0-2.266,0.883-2.266,2.209v15.188H55.754z"/>
		<path fill="#FFFFFF" d="M89.506,32.059h-4.64c-5.872,0-8.654-2.028-8.654-7.157V9.912h6.052v14.492
			c0,1.798,0.665,2.337,3.103,2.337h4.14V32.059z"/>
		<path fill="#FFFFFF" d="M98.721,9.912v14.583c0,1.619,0.825,2.62,2.814,2.62c1.98,0,2.82-1.001,2.82-2.62V9.912h6.054v14.146
			c0,5.059-3.264,8.375-8.874,8.375c-5.594,0-8.873-3.316-8.873-8.375V9.912H98.721z"/>
		<path fill="#FFFFFF" d="M119.322,9.912l3.379,15.433h0.068l3.76-15.433h6.334l-4.709,16.897c-1.148,4.103-2.25,5.623-5.533,5.623
			c-3.063,0-4.314-1.521-5.354-5.566l-4.319-16.954H119.322z"/>
		<path fill="#FFFFFF" d="M141.484,32.059h-6.048V9.912h6.048V32.059z"/>
		<path fill="#FFFFFF" d="M152.133,9.912v14.583c0,1.619,0.826,2.62,2.826,2.62c1.98,0,2.806-1.001,2.806-2.62V9.912h6.056v14.146
			c0,5.059-3.263,8.375-8.861,8.375c-5.615,0-8.884-3.316-8.884-8.375V9.912H152.133z"/>
		<path fill="#FFFFFF" d="M181.395,15.041h-6.134c-0.747,0-1.376,0.249-1.376,0.907c0,1.875,9.08,4.278,9.08,9.469
			c0,2.844-0.811,6.642-8.604,6.642h-6.496v-5.13h6.295c1.387,0,2.265-0.384,2.265-1.201c0-2.333-8.749-4.238-8.749-9.549
			c0-4.626,3.592-6.267,7.386-6.267h6.333V15.041z"/>
	</g>
	<g>
		<g>
			<path fill="#FFFFFF" d="M1.223,26.14c0.017,0.102,0.017,0.201,0.021,0.307c0,0.01,0.007,0.025,0.007,0.047
				c0,0-0.007,0.015-0.002,0.017c-0.005,0.159-0.017,0.319-0.048,0.475c-0.005,0.008-0.005,0.015-0.005,0.015
				c-0.036,0.168-0.086,0.328-0.153,0.479c0.005,0.012,0.008,0.016,0.014,0.025c-0.009,0.014-0.014,0.031-0.021,0.046
				c0.36,0.54,0.68,1.1,0.979,1.679c-0.293-0.983-0.525-2.002-0.676-3.04v0.017C1.298,26.187,1.261,26.161,1.223,26.14z"/>
			<path fill="#FFFFFF" d="M22.736,1.362c-0.489,0-0.977,0.023-1.46,0.056c3.504,2.314,6.179,5.897,7.259,10.292
				c0.142,0.543,0.259,1.076,0.338,1.61c-0.069-0.089-0.149-0.172-0.22-0.263c0.002,0.009,0.002,0.017,0.006,0.026
				c-0.486-0.625-1.02-1.209-1.582-1.756c-1.88-1.784-4.142-3.135-6.616-3.938c-0.181-0.06-0.363-0.119-0.554-0.175
				c-0.081-0.025-0.162-0.046-0.245-0.072c-2.83-0.797-5.897-0.879-8.946-0.101c-1.522,0.385-2.941,0.966-4.25,1.704
				c-2.94,3.354-4.86,7.626-5.275,12.332c0.411-0.505,0.838-0.993,1.313-1.45c0.027-0.023,0.051-0.045,0.076-0.071
				c0.014-0.012,0.028-0.028,0.038-0.039C2.804,19.341,3,19.173,3.191,19.004c0.047-0.039,0.091-0.082,0.141-0.127
				c4.106-3.55,9.469-4.847,14.502-3.916l-0.155-0.155c3.425,0.609,6.697,2.248,9.324,4.912c2.433,2.493,3.952,5.535,4.587,8.72
				c0.041,0.196,0.083,0.399,0.117,0.601c0.011,0.055,0.027,0.107,0.03,0.164l-0.003-0.008c0.863,5.32-0.758,10.948-4.841,15.038
				c9.961-1.938,17.48-10.702,17.48-21.235C44.374,11.054,34.687,1.362,22.736,1.362z"/>
			<path fill="#FFFFFF" d="M26.757,38.106c-0.003-0.074-0.003-0.146-0.008-0.217c-0.022-0.354-0.054-0.71-0.095-1.063
				c-0.021-0.159-0.045-0.315-0.064-0.475c-0.046-0.302-0.093-0.595-0.149-0.894c-0.092-0.461-0.201-0.928-0.331-1.379
				c-0.026-0.1-0.055-0.188-0.086-0.283c-0.065-0.211-0.132-0.42-0.202-0.628c-0.074-0.21-0.155-0.421-0.233-0.629
				c-0.016-0.039-0.033-0.078-0.051-0.116c-0.811-1.999-2.011-3.884-3.607-5.527c-0.395-0.41-0.81-0.791-1.232-1.156
				c-0.049-0.039-0.103-0.074-0.15-0.115c-0.345-0.289-0.697-0.568-1.059-0.824c-0.109-0.078-0.222-0.141-0.332-0.217
				c-0.306-0.208-0.619-0.42-0.935-0.606c-0.17-0.096-0.349-0.185-0.521-0.276c-0.267-0.146-0.532-0.293-0.805-0.425
				c-0.231-0.108-0.471-0.198-0.704-0.298c-0.219-0.093-0.437-0.193-0.662-0.275c-0.292-0.11-0.59-0.199-0.886-0.291
				c-0.171-0.051-0.342-0.117-0.518-0.165c-0.349-0.097-0.702-0.173-1.055-0.249c-0.126-0.025-0.248-0.065-0.374-0.086
				c-0.41-0.079-0.816-0.135-1.228-0.181c-0.074-0.008-0.148-0.023-0.222-0.028c-0.471-0.051-0.941-0.078-1.415-0.085
				c-0.014,0-0.028-0.005-0.041-0.005c-2.983-0.058-5.98,0.649-8.672,2.117c0.018,0.564,0.055,1.126,0.118,1.685
				c1.855-0.089,3.739,0.087,5.644,0.624c2.375,0.68,4.491,1.83,6.278,3.316c4.372,3.607,6.785,9.225,6.242,15.023
				c1.088,0.173,2.201,0.26,3.333,0.26c1.064,0,2.107-0.083,3.128-0.227C26.554,42.374,26.848,40.233,26.757,38.106z"/>
			<path fill="#FFFFFF" d="M1.331,26.126c0,0.02,0.002,0.043,0.008,0.062c0.15,1.038,0.383,2.057,0.676,3.04
				c0.245,0.477,0.475,0.963,0.675,1.465c0.267,0.635,0.497,1.296,0.691,1.974c1.726,3.442,4.332,6.357,7.531,8.448
				C10.723,34.8,7.068,28.987,1.331,26.126z"/>
			<path fill="#FFFFFF" d="M2.015,29.228c0.359,1.196,0.82,2.344,1.366,3.438c-0.194-0.678-0.425-1.339-0.691-1.974
				C2.489,30.19,2.26,29.704,2.015,29.228z"/>
		</g>
	</g>
	<g>
		<path fill="#FFFFFF" d="M60.204,38.069c-0.103-0.787-0.853-0.871-1.514-0.871c-0.674,0-1.115,0.304-1.115,0.709
			c0,0.32,0.272,0.5,0.694,0.565l2.052,0.33c1.101,0.177,1.934,0.593,1.934,1.69c0,1.121-0.761,2.025-3.135,2.025
			c-1.467,0-3.378-0.185-3.393-2.068h1.841c0.015,0.827,0.846,0.971,1.552,0.971c0.771,0,1.294-0.228,1.294-0.751
			c0-0.465-0.371-0.593-1.021-0.694l-1.493-0.229c-1.049-0.157-2.063-0.469-2.063-1.703c0-1.344,1.1-1.895,2.988-1.895
			c1.241,0,3.082,0.214,3.194,1.92H60.204z"/>
		<path fill="#FFFFFF" d="M63.323,36.318h1.64v6.03h-1.64V36.318z"/>
		<path fill="#FFFFFF" d="M70.508,38.069c-0.103-0.787-0.853-0.871-1.511-0.871c-0.677,0-1.115,0.304-1.115,0.709
			c0,0.32,0.269,0.5,0.692,0.565l2.051,0.33c1.099,0.177,1.936,0.593,1.936,1.69c0,1.121-0.762,2.025-3.134,2.025
			c-1.47,0-3.38-0.185-3.394-2.068h1.839c0.016,0.827,0.845,0.971,1.555,0.971c0.767,0,1.292-0.228,1.292-0.751
			c0-0.465-0.373-0.593-1.023-0.694l-1.493-0.229c-1.047-0.157-2.062-0.469-2.062-1.703c0-1.344,1.099-1.895,2.99-1.895
			c1.243,0,3.081,0.214,3.19,1.92H70.508z"/>
		<path fill="#FFFFFF" d="M75.282,37.467h-2.239v-1.148h6.115v1.148h-2.237v4.882h-1.639V37.467z"/>
		<path fill="#FFFFFF" d="M80.041,36.318h5.631v1.148H81.68v1.251h3.788v1.098H81.68v1.386h4.029v1.147h-5.668V36.318z"/>
		<path fill="#FFFFFF" d="M92.912,36.318h2.41v6.03h-1.59v-4.828h-0.017l-1.906,4.828h-1.37l-1.907-4.828h-0.018v4.828h-1.588v-6.03
			h2.407l1.789,4.342L92.912,36.318z"/>
		<path fill="#FFFFFF" d="M101.116,41.11h-2.771l-0.49,1.238H96.09l2.652-6.03h1.977l2.651,6.03h-1.767L101.116,41.11z M99.73,37.62
			l-0.945,2.391h1.892L99.73,37.62z"/>
		<path fill="#FFFFFF" d="M108.221,38.069c-0.102-0.787-0.852-0.871-1.51-0.871c-0.678,0-1.117,0.304-1.117,0.709
			c0,0.32,0.271,0.5,0.695,0.565l2.052,0.33c1.097,0.177,1.931,0.593,1.931,1.69c0,1.121-0.758,2.025-3.132,2.025
			c-1.47,0-3.38-0.185-3.396-2.068h1.844c0.016,0.827,0.844,0.971,1.552,0.971c0.769,0,1.294-0.228,1.294-0.751
			c0-0.465-0.373-0.593-1.023-0.694l-1.495-0.229c-1.045-0.157-2.06-0.469-2.06-1.703c0-1.344,1.096-1.895,2.99-1.895
			c1.24,0,3.083,0.214,3.192,1.92H108.221z"/>
		<path fill="#FFFFFF" d="M114.783,36.318h3.758c2.068,0,2.967,1.202,2.967,3.017c0,1.816-0.931,3.014-2.82,3.014h-3.904V36.318z
			 M116.422,41.201h1.824c1.084,0,1.571-0.651,1.571-1.923c0-1.117-0.474-1.812-1.725-1.812h-1.671V41.201z"/>
		<path fill="#FFFFFF" d="M122.76,36.318h5.633v1.148h-3.997v1.251h3.794v1.098h-3.794v1.386h4.031v1.147h-5.667V36.318z"/>
		<path fill="#FFFFFF" d="M133.09,36.318h4.526c0.877,0,1.697,0.409,1.697,1.522c0,0.463-0.235,1.029-0.804,1.206v0.018
			c0.703,0.12,1.072,0.812,1.072,1.462c0,0.8-0.369,1.822-2.193,1.822h-4.299V36.318z M134.729,38.718h2.277
			c0.383,0,0.618-0.201,0.618-0.648c0-0.381-0.169-0.65-0.845-0.65h-2.051V38.718z M134.729,41.201h2.413
			c0.508,0,0.7-0.329,0.7-0.708c0-0.473-0.295-0.728-0.869-0.728h-2.244V41.201z"/>
		<path fill="#FFFFFF" d="M144.325,36.149c3.244,0,3.749,1.928,3.749,3.186c0,1.26-0.505,3.184-3.749,3.184
			c-3.245,0-3.751-1.924-3.751-3.184C140.574,38.077,141.08,36.149,144.325,36.149z M144.325,41.369
			c1.483,0,2.009-1.097,2.009-2.034c0-0.939-0.525-2.033-2.009-2.033c-1.491,0-2.011,1.094-2.011,2.033
			C142.314,40.272,142.834,41.369,144.325,41.369z"/>
		<path fill="#FFFFFF" d="M155.186,36.318h2.407v6.03h-1.587v-4.828h-0.018l-1.908,4.828h-1.371l-1.904-4.828h-0.019v4.828h-1.587
			v-6.03h2.404l1.794,4.342L155.186,36.318z"/>
		<path fill="#FFFFFF" d="M159.057,36.318h4.526c0.878,0,1.696,0.409,1.696,1.522c0,0.463-0.237,1.029-0.803,1.206v0.018
			c0.703,0.12,1.074,0.812,1.074,1.462c0,0.8-0.371,1.822-2.195,1.822h-4.299V36.318z M160.691,38.718h2.283
			c0.381,0,0.615-0.201,0.615-0.648c0-0.381-0.166-0.65-0.846-0.65h-2.053V38.718z M160.691,41.201h2.416
			c0.508,0,0.702-0.329,0.702-0.708c0-0.473-0.294-0.728-0.869-0.728h-2.249V41.201z"/>
		<path fill="#FFFFFF" d="M166.877,36.318h5.635v1.148h-3.994v1.251h3.792v1.098h-3.792v1.386h4.027v1.147h-5.668V36.318z"/>
		<path fill="#FFFFFF" d="M177.176,36.149c3.244,0,3.75,1.928,3.75,3.186c0,1.26-0.506,3.184-3.75,3.184
			c-3.242,0-3.75-1.924-3.75-3.184C173.426,38.077,173.934,36.149,177.176,36.149z M177.176,41.369c1.487,0,2.011-1.097,2.011-2.034
			c0-0.939-0.523-2.033-2.011-2.033c-1.486,0-2.009,1.094-2.009,2.033C175.167,40.272,175.689,41.369,177.176,41.369z"/>
	</g>
</g>
</svg>
