<svg width="108" height="36" viewBox="0 0 108 36" fill="none" xmlns="http://www.w3.org/2000/svg">
<g clip-path="url(#clip0_896_11449)">
<path d="M68.4508 34.75C68.4508 35.15 68.2508 35.45 68.0008 35.65C67.7508 35.85 67.4008 36 67.0008 36C66.6008 36 66.4508 35.95 66.2508 35.8C66.0508 35.65 65.8508 35.45 65.7508 35.2C65.6508 34.95 65.5508 34.65 65.5508 34.3V33.95C65.5508 33.6 65.6008 33.3 65.7508 33.05C65.8508 32.8 66.0508 32.6 66.3008 32.45C66.5508 32.3 66.8008 32.25 67.1008 32.25C67.4008 32.25 67.8008 32.35 68.0508 32.6C68.3008 32.85 68.4508 33.15 68.5008 33.5H67.9008C67.9008 33.25 67.8008 33.05 67.7008 32.95C67.6008 32.85 67.4008 32.8 67.1508 32.8C66.9008 32.8 66.6508 32.9 66.5008 33.1C66.3508 33.3 66.3008 33.6 66.3008 34V34.35C66.3008 34.75 66.3508 35.05 66.5008 35.25C66.6508 35.45 66.8508 35.55 67.1008 35.55C67.3508 35.55 67.5508 35.5 67.6508 35.4C67.7508 35.3 67.8508 35.1 67.9008 34.85H68.5008L68.4508 34.75ZM71.7008 32.35V34.75C71.7008 35.15 71.6008 35.45 71.3508 35.65C71.1008 35.85 70.8008 36 70.3508 36C69.9008 36 69.6008 35.9 69.3508 35.65C69.1008 35.45 69.0008 35.1 69.0008 34.75V32.35H69.6508V34.75C69.6508 35 69.7008 35.15 69.8508 35.3C69.9508 35.4 70.1508 35.5 70.4008 35.5C70.9008 35.5 71.1508 35.25 71.1508 34.75V32.35H71.7508H71.7008ZM73.0508 35.95H72.4508V32.35H73.0508V35.95ZM73.8008 35.95V32.35H74.8508C75.1508 32.35 75.4508 32.45 75.7008 32.55C75.9508 32.7 76.1508 32.9 76.3008 33.15C76.4508 33.4 76.5008 33.7 76.5008 34.05V34.25C76.5008 34.6 76.4508 34.9 76.3008 35.15C76.1508 35.4 75.9508 35.6 75.7008 35.75C75.4508 35.9 75.1508 35.95 74.8508 35.95H73.8008ZM74.4508 32.85V35.45H74.8508C75.2008 35.45 75.4508 35.35 75.6008 35.15C75.8008 34.95 75.8508 34.65 75.8508 34.25V34.05C75.8508 33.65 75.7508 33.35 75.6008 33.15C75.4508 32.95 75.2008 32.85 74.8508 32.85H74.4008H74.4508ZM79.1008 35.1H77.7008L77.4008 35.95H76.7508L78.1008 32.35H78.6508L80.0508 35.95H79.4008L79.1008 35.1ZM77.9008 34.6H78.9508L78.4008 33.1L77.8508 34.6H77.9008ZM84.2008 32.85H83.0508V35.95H82.4508V32.85H81.3508V32.35H84.2508V32.85H84.2008ZM87.3508 32.35V34.75C87.3508 35.15 87.2508 35.45 87.0008 35.65C86.7508 35.85 86.4508 36 86.0008 36C85.5508 36 85.2508 35.9 85.0008 35.65C84.7508 35.45 84.6508 35.1 84.6508 34.75V32.35H85.3008V34.75C85.3008 35 85.3508 35.15 85.5008 35.3C85.6008 35.4 85.8008 35.5 86.0508 35.5C86.5508 35.5 86.8008 35.25 86.8008 34.75V32.35H87.4508H87.3508ZM91.3508 35.1H89.9508L89.6508 35.95H89.0008L90.3508 32.35H90.9008L92.3008 35.95H91.6508L91.3508 35.1ZM90.1008 34.6H91.1508L90.6008 33.1L90.0508 34.6H90.1008ZM95.4508 35.5C95.3008 35.65 95.1508 35.8 94.9008 35.9C94.6508 36 94.4008 36.05 94.1008 36.05C93.8008 36.05 93.5508 36 93.3008 35.85C93.0508 35.7 92.9008 35.5 92.7508 35.25C92.6008 35 92.5508 34.7 92.5508 34.35V34.05C92.5508 33.5 92.7008 33.1 92.9508 32.75C93.2008 32.45 93.6008 32.3 94.0508 32.3C94.5008 32.3 94.7508 32.4 95.0008 32.6C95.2508 32.8 95.4008 33.1 95.4508 33.45H94.8508C94.8008 33 94.5508 32.8 94.1008 32.8C93.6508 32.8 93.6008 32.9 93.4508 33.1C93.3008 33.3 93.2508 33.6 93.2508 34V34.3C93.2508 34.7 93.3508 35 93.5008 35.2C93.6508 35.4 93.9008 35.55 94.2008 35.55C94.5008 35.55 94.7508 35.5 94.9008 35.35V34.65H94.1508V34.15H95.5508V35.55L95.4508 35.5ZM98.7508 32.35V34.75C98.7508 35.15 98.6508 35.45 98.4008 35.65C98.1508 35.85 97.8508 36 97.4008 36C96.9508 36 96.6508 35.9 96.4008 35.65C96.1508 35.45 96.0508 35.1 96.0508 34.75V32.35H96.7008V34.75C96.7008 35 96.7508 35.15 96.9008 35.3C97.0008 35.4 97.2008 35.5 97.4508 35.5C97.9508 35.5 98.1508 35.25 98.1508 34.75V32.35H98.8008H98.7508ZM101.401 35.1H100.001L99.7008 35.95H99.0508L100.401 32.35H100.951L102.301 35.95H101.651L101.351 35.1H101.401ZM100.201 34.6H101.251L100.701 33.1L100.151 34.6H100.201Z" fill="white"/>
<path d="M87.0502 9.1002L85.6502 10.6002C84.9002 11.4502 83.5502 11.5002 82.6502 10.7502L74.7502 4.0002C73.0502 2.5502 70.5002 2.6502 68.9502 4.2002L71.6002 1.3002C73.1502 -0.349805 75.8002 -0.549805 77.5502 0.950195L87.0502 9.0502V9.1002ZM90.5502 10.2502C92.3002 11.7502 94.9502 11.6002 96.5002 9.9002L100.65 5.3502L99.2502 6.8502C97.7002 8.5002 95.0502 8.7002 93.3002 7.2002L85.4002 0.450195C84.5002 -0.299805 83.2002 -0.249805 82.4002 0.600195L81.0002 2.1002L90.5002 10.2002L90.5502 10.2502Z" fill="white"/>
<path d="M97.35 2.7999C98.1 1.9499 99.45 1.8999 100.35 2.6499L101.9 3.9999L99.2 6.8999C97.65 8.5999 95 8.6999 93.25 7.2499L97.3 2.7999H97.35ZM74.8 4.0499C73.1 2.5999 70.55 2.6999 69 4.2499L70.6 5.5999C71.5 6.3499 72.8 6.2999 73.6 5.4499L74.85 4.0999" fill="#C6C6C6"/>
<path d="M14.7 26.6502C14.65 26.8502 14.55 27.0002 14.45 27.2002C14.35 27.3502 14.2 27.5502 14.05 27.7002C13.8 27.9502 13.55 28.1502 13.3 28.3002C13 28.4502 12.7 28.5002 12.35 28.5002C12 28.5002 12.1 28.5002 11.95 28.5002C11.8 28.5002 11.7 28.5002 11.55 28.4502C11.3 28.4002 11.05 28.3002 10.85 28.1502C10.65 28.0002 10.5 27.8502 10.35 27.7002C10.25 27.6002 10.2 27.4502 10.1 27.3002C10 27.1502 9.9 26.9502 9.8 26.7502C9.8 26.6502 9.75 26.6002 9.7 26.5002C9.65 26.4002 9.55 26.1502 9.45 25.8002L8.9 27.1002C8.85 27.2002 8.8 27.3502 8.7 27.4502C8.65 27.5502 8.55 27.6502 8.5 27.7002C8.3 28.0002 8.05 28.2002 7.75 28.3502C7.45 28.5002 7.1 28.5502 6.75 28.5502C6.4 28.5502 6.5 28.5502 6.4 28.5502C6.25 28.5502 6.15 28.5502 6.05 28.5002C5.8 28.4502 5.55 28.3502 5.4 28.2002C5.2 28.0502 5.05 27.9002 4.9 27.7502C4.8 27.6002 4.7 27.4502 4.6 27.2502C4.5 27.1002 4.45 26.9002 4.35 26.7502C4.3 26.6502 4.25 26.5502 4.2 26.4002C4.15 26.3002 4.1 26.1502 4 25.9502C3.9 25.7502 3.85 25.5002 3.7 25.2002C3.6 24.9002 3.45 24.5502 3.25 24.0502C3.1 23.6002 2.85 23.0502 2.6 22.4002C2.35 21.7502 2.05 20.9502 1.7 20.0502H0.9C0.7 20.0502 0.55 20.0002 0.45 19.8502C0.35 19.7502 0.25 19.5502 0.25 19.3502V18.4502C0.25 18.4002 0.25 18.3002 0.3 18.2002C0.3 18.1002 0.4 18.0002 0.45 18.0002C0.6 17.8502 0.8 17.7502 1 17.6002C1.2 17.5002 1.45 17.4002 1.7 17.3502C1.95 17.3002 2.3 17.2502 2.65 17.2502C3 17.2502 3.4 17.3502 3.7 17.6002C3.95 17.8002 4.15 18.0502 4.25 18.2502L6.7 25.3502C6.8 25.1502 6.9 24.9002 7 24.6002C7.1 24.3002 7.2 24.0002 7.3 23.7002C7.4 23.4002 7.5 23.1002 7.6 22.8002C7.7 22.5002 7.8 22.2502 7.9 22.0502L6.85 19.2002C6.8 19.0502 6.75 18.9002 6.7 18.7502C6.65 18.6002 6.65 18.5002 6.65 18.4002C6.65 18.1502 6.75 18.0002 6.95 17.9002C7.15 17.8002 7.35 17.7002 7.65 17.6002C7.7 17.6002 7.75 17.6002 7.85 17.5502C7.9 17.5502 7.95 17.5502 8 17.5002C8.15 17.4502 8.3 17.4002 8.45 17.3502C8.55 17.3502 8.7 17.3502 8.8 17.3502C9.1 17.3502 9.35 17.4502 9.5 17.6002C9.65 17.7502 9.75 18.0002 9.85 18.3002L12.35 25.3502L14.85 18.3002C14.95 17.9502 15.1 17.7002 15.25 17.5502C15.4 17.4002 15.6 17.3002 15.9 17.3002C16.2 17.3002 16.15 17.3002 16.25 17.3002C16.35 17.3002 16.5 17.3502 16.6 17.4002H16.85C17.25 17.6002 17.5 17.7002 17.7 17.8002C17.9 17.9002 18 18.1002 18 18.3002C18 18.5002 18 18.5502 17.95 18.7002C17.95 18.8502 17.85 19.0002 17.8 19.1502L14.8 26.7002L14.7 26.6502ZM22.25 28.5002C21.95 28.5002 21.7 28.4002 21.5 28.3502C21.3 28.3002 21.1 28.2002 20.9 28.1502C20 27.7502 19.3 27.1002 18.85 26.2002C18.35 25.3002 18.15 24.2502 18.15 23.0002C18.15 21.7502 18.25 21.7002 18.4 21.1002C18.6 20.5002 18.85 19.9502 19.15 19.4502C19.5 18.9502 19.9 18.5502 20.35 18.2002C20.85 17.8502 21.35 17.6002 21.95 17.4502C22.45 17.3002 23 17.2502 23.6 17.2502C24.2 17.2502 24.3 17.2502 24.55 17.2502C24.8 17.2502 25.05 17.3002 25.35 17.4002C25.45 17.3002 25.6 17.2502 25.75 17.2502C25.9 17.2502 26.1 17.2502 26.35 17.2502H26.6C26.95 17.2502 27.25 17.2502 27.45 17.2502C27.65 17.2502 27.85 17.2502 27.95 17.3502C28.05 17.4502 28.15 17.5502 28.15 17.7502C28.15 17.9502 28.15 18.2002 28.15 18.5502V26.1002H28.6C28.8 26.1002 28.95 26.1502 29.1 26.3002C29.2 26.4002 29.3 26.6002 29.3 26.7502V27.6002C29.3 27.7502 29.3 27.9002 29.2 27.9502C29.15 28.0502 29 28.1002 28.8 28.2002C28.8 28.2002 28.7 28.2002 28.55 28.3002C28.45 28.3002 28.25 28.3502 28.1 28.4002C27.9 28.4002 27.7 28.4002 27.5 28.4502C27.25 28.4502 27.05 28.4502 26.8 28.4502C26.2 28.4502 25.75 28.2002 25.5 27.9002C25.25 28.0002 25.1 28.1002 24.95 28.1502C24.35 28.4002 23.7 28.5002 22.9 28.5002H22.6C22.5 28.5002 22.4 28.5002 22.35 28.5002H22.25ZM22.8 25.7502C22.95 25.7502 23.15 25.7502 23.4 25.7502C23.65 25.7502 24 25.6502 24.4 25.5502C24.6 25.5002 24.75 25.4502 24.8 25.4002C24.9 25.4002 24.95 25.3502 25.05 25.3002V20.2002C24.85 20.2002 24.65 20.1502 24.4 20.1002C24.15 20.0502 23.9 20.1002 23.6 20.1002C23.15 20.1002 22.75 20.2002 22.45 20.4002C22.15 20.6002 21.95 20.8502 21.75 21.2002C21.6 21.5502 21.5 21.9002 21.4 22.3002C21.35 22.7002 21.35 23.1502 21.4 23.5502C21.4 23.8002 21.4 24.1002 21.5 24.3502C21.5 24.6002 21.6 24.8502 21.7 25.0502C21.8 25.2502 21.95 25.4502 22.1 25.5502C22.25 25.7002 22.5 25.8002 22.8 25.8002V25.7502ZM33.25 23.3502C33.25 23.7002 33.25 24.1002 33.25 24.4502C33.25 24.8002 33.35 25.1002 33.45 25.2502C33.55 25.4502 33.75 25.5502 34 25.6002C34.25 25.6002 34.55 25.6002 34.8 25.6002H35.25C35.45 25.6002 35.6 25.6002 35.75 25.6002C35.85 25.6002 36 25.7002 36.05 25.8002C36.15 25.9002 36.2 26.0002 36.25 26.1502C36.3 26.3002 36.4 26.5002 36.45 26.7002L36.55 27.0002C36.6 27.1502 36.65 27.3502 36.65 27.6002C36.65 27.8502 36.55 28.0002 36.45 28.1002C36.3 28.2002 36.05 28.3002 35.7 28.3502C35.5 28.4002 35.25 28.4502 35.05 28.4502C34.85 28.4502 34.6 28.4502 34.35 28.4502C33.65 28.4502 32.95 28.3002 32.25 28.0502C31.6 27.8002 31.1 27.4002 30.75 26.8002C30.5 26.3502 30.3 25.8502 30.25 25.2502C30.15 24.6502 30.15 24.0002 30.15 23.3002V15.3002C30.15 14.9502 30.15 14.7002 30.15 14.5502C30.15 14.4002 30.25 14.2502 30.35 14.1502C30.45 14.0502 30.6 14.0002 30.75 14.0002C30.9 14.0002 31.15 14.0002 31.5 14.0002H31.75C32.1 14.0002 32.35 14.0002 32.55 14.0002C32.75 14.0002 32.9 14.0502 33 14.1502C33.1 14.2502 33.15 14.3502 33.2 14.5502C33.25 14.7502 33.2 15.0002 33.2 15.3002V17.2502H35.3C35.6 17.2502 35.85 17.2502 36 17.2502C36.15 17.2502 36.3 17.3002 36.35 17.3502C36.4 17.4002 36.45 17.5502 36.45 17.7002C36.45 17.8502 36.45 18.1002 36.45 18.4002V18.5502C36.45 18.8002 36.45 19.0502 36.45 19.2002C36.45 19.4002 36.4 19.5502 36.3 19.7002C36.2 19.8002 36.1 19.9002 35.9 20.0002C35.75 20.0502 35.45 20.1002 35.15 20.1002H33.2V23.3002L33.25 23.3502ZM43.05 25.7002C43.3 25.7002 43.6 25.7002 43.9 25.6002C44.25 25.6002 44.6 25.5002 45.05 25.4002C45.2 25.4002 45.35 25.3502 45.5 25.3002C45.6 25.3002 45.75 25.3002 45.85 25.3002C46.15 25.3002 46.35 25.4002 46.45 25.5502C46.55 25.7502 46.7 26.0502 46.9 26.5002C47 26.7502 47.05 27.0002 47.05 27.1502C47.05 27.5502 46.85 27.8502 46.45 28.0002C46.05 28.1502 45.5 28.2502 44.8 28.4002C44.1 28.5502 43.25 28.6002 42.3 28.6002C41.35 28.6002 40.55 28.4502 39.95 28.2002C39.65 28.0502 39.4 27.9002 39.1 27.7002C38.8 27.5002 38.6 27.3002 38.4 27.0502C37.6 26.0502 37.2 24.7502 37.2 23.0502C37.2 21.3502 37.3 21.5002 37.55 20.8002C37.8 20.1002 38.1 19.5502 38.5 19.0502C38.8 18.7002 39.1 18.4002 39.4 18.1502C39.7 17.9002 40 17.7502 40.4 17.6002C40.75 17.5002 41.15 17.4002 41.6 17.3502C42.05 17.3502 42.55 17.3002 43.15 17.3502C43.3 17.3502 43.55 17.3502 43.8 17.4002C44.05 17.4002 44.35 17.5002 44.65 17.6502C44.95 17.7502 45.25 17.9502 45.55 18.2002C45.85 18.4502 46.15 18.7502 46.4 19.1002C46.65 19.5002 46.85 19.9502 47 20.5002C47.15 21.0502 47.25 21.7502 47.25 22.5502C47.25 23.3502 47.2 23.3002 47.05 23.5002C46.95 23.7502 46.8 23.9002 46.6 24.0002C46.45 24.1002 46.25 24.1502 46.1 24.2002C45.95 24.2002 45.8 24.2002 45.7 24.2002H40.35C40.35 24.4502 40.4 24.6502 40.5 24.8502C40.6 25.0502 40.7 25.2002 40.8 25.3002C41 25.5002 41.25 25.6502 41.55 25.7002C41.9 25.8002 42.35 25.8002 43 25.8002L43.05 25.7002ZM41.15 20.1502C40.8 20.4002 40.55 20.9002 40.45 21.6502H44.55C44.45 20.9002 44.2 20.4002 43.85 20.1502C43.5 19.9002 43.05 19.7502 42.5 19.7502C41.95 19.7502 41.5 19.8502 41.15 20.1502ZM52.65 17.3002C52.85 17.3002 53.15 17.3002 53.45 17.2002C53.8 17.2002 54.1 17.2002 54.4 17.2002H54.55C54.75 17.2002 54.95 17.2002 55.15 17.2002C55.35 17.2002 55.5 17.2002 55.65 17.3002C55.8 17.3502 55.9 17.4502 56 17.5502C56.1 17.6502 56.1 17.8002 56.1 18.0502C56.1 18.3002 56.1 18.2002 56.1 18.3502C56.1 18.4502 56.05 18.6002 56 18.7002L55.9 19.0002C55.85 19.2002 55.75 19.4002 55.7 19.5502C55.65 19.7002 55.6 19.8002 55.5 19.9002C55.4 20.0002 55.3 20.0502 55.2 20.0502C55.05 20.0502 54.9 20.0502 54.7 20.0502C54.45 20.0502 54.25 20.0002 54.05 20.0002C53.7 20.0002 53.4 20.0002 53.05 20.0502C52.7 20.1002 52.4 20.1502 52.1 20.2002V27.0002C52.1 27.5502 52 27.9002 51.9 28.0502C51.75 28.2002 51.45 28.3002 50.95 28.3002H50.2C49.95 28.3002 49.75 28.3002 49.6 28.3002C49.45 28.3002 49.3 28.2002 49.25 28.1002C49.15 28.0002 49.1 27.8502 49.1 27.7002C49.1 27.5502 49.1 27.3002 49.1 27.0002V20.0502H48.65C48.45 20.0502 48.3 20.0002 48.2 19.8502C48.1 19.7502 48 19.5502 48 19.3502V18.4502C48 18.3002 48 18.2002 48.1 18.1002C48.1 18.0502 48.2 18.0002 48.2 18.0002C48.35 17.8502 48.55 17.7502 48.8 17.6002C49 17.5002 49.25 17.4002 49.5 17.3002C49.8 17.2002 50.1 17.1502 50.45 17.1502C50.8 17.1502 51 17.1502 51.2 17.3002C51.4 17.4502 51.6 17.5002 51.75 17.6502C51.9 17.5502 52.1 17.5002 52.25 17.4502C52.45 17.4002 52.6 17.3502 52.8 17.3002H52.65ZM59.2 34.1002C58.85 34.1002 58.6 34.1002 58.45 34.1002C58.25 34.1002 58.15 34.0502 58.05 33.9502C57.95 33.8502 57.9 33.7502 57.9 33.5502C57.9 33.4002 57.9 33.1002 57.9 32.8002V20.1502H57.4C57.2 20.1502 57.05 20.1002 56.95 19.9502C56.85 19.8502 56.75 19.7002 56.75 19.4502V18.5502C56.75 18.5002 56.75 18.4002 56.8 18.3002C56.8 18.2002 56.9 18.1002 56.9 18.1002C57.05 17.9502 57.25 17.8502 57.5 17.7002C57.7 17.6002 57.95 17.5002 58.2 17.4002C58.5 17.3002 58.8 17.3002 59.15 17.3002C59.5 17.3002 59.7 17.3502 59.95 17.4502C60.2 17.5502 60.4 17.7002 60.55 17.8502L61.1 17.6002C61.7 17.3502 62.4 17.2502 63.2 17.2502C63.55 17.2502 63.9 17.2502 64.25 17.3502C64.6 17.4502 64.85 17.5002 65.05 17.6002C65.95 18.0002 66.65 18.7002 67.1 19.5502C67.55 20.4502 67.8 21.5002 67.8 22.7502C67.8 24.0002 67.7 24.3002 67.45 25.0002C67.2 25.7002 66.9 26.3002 66.5 26.7502C66.1 27.2502 65.7 27.6002 65.2 27.8502C64.75 28.0502 64.35 28.2502 64 28.3002C63.75 28.3502 63.45 28.4002 63.2 28.4502C62.95 28.5002 62.65 28.4502 62.35 28.4502H61.65C61.45 28.4502 61.25 28.4502 61.1 28.4502C61.1 28.4502 61.05 28.4502 61 28.4502C61 28.4502 60.95 28.4502 60.9 28.4502V32.8502C60.9 33.2002 60.9 33.4502 60.85 33.6002C60.85 33.7502 60.75 33.9002 60.65 34.0002C60.55 34.1002 60.4 34.1502 60.2 34.1502C60 34.1502 59.75 34.1502 59.4 34.1502H59.15L59.2 34.1002ZM63.2 20.0002C63.05 20.0002 62.8 20.0002 62.55 20.0002C62.25 20.0002 61.95 20.1002 61.6 20.2502C61.35 20.3502 61.1 20.5002 60.95 20.6002V25.6502C61.15 25.6502 61.35 25.6502 61.6 25.7002C61.85 25.7002 62.1 25.7002 62.4 25.7002C62.9 25.7002 63.25 25.6502 63.4 25.5502C63.65 25.4502 63.9 25.2502 64.05 25.0002C64.2 24.7502 64.35 24.5002 64.4 24.2002C64.5 23.9002 64.55 23.6002 64.55 23.2502C64.55 22.9002 64.55 22.6002 64.55 22.3002C64.55 22.0502 64.55 21.7502 64.5 21.5002C64.5 21.2502 64.4 21.0002 64.3 20.8002C64.2 20.6002 64.05 20.4002 63.9 20.2502C63.7 20.1002 63.5 20.0002 63.2 20.0002ZM72.15 26.1002H72.6C72.8 26.1002 72.95 26.1502 73.1 26.3002C73.25 26.4502 73.3 26.6002 73.3 26.7502V27.6002C73.3 27.7002 73.25 27.8002 73.1 27.9502C72.95 28.1002 72.8 28.2002 72.65 28.2502C72.6 28.2502 72.35 28.3502 72.05 28.4002C71.7 28.4502 71.25 28.5002 70.7 28.4002C70.3 28.4002 70 28.2502 69.75 28.1002C69.55 27.9502 69.35 27.7502 69.25 27.5502C69.15 27.3502 69.1 27.1502 69.05 26.9502C69.05 26.7502 69.05 26.6502 69.05 26.5502V15.2502C69.05 14.9502 69.05 14.7002 69.1 14.5002C69.15 14.3002 69.2 14.2002 69.3 14.1002C69.4 14.0002 69.55 13.9502 69.75 13.9502C69.95 13.9502 70.2 13.9502 70.55 13.9502H70.8C71.1 13.9502 71.4 13.9502 71.55 13.9502C71.7 13.9502 71.85 14.0002 71.95 14.1002C72.05 14.2002 72.1 14.3002 72.15 14.5002C72.15 14.7002 72.15 14.9502 72.15 15.2502V26.0002V26.1002ZM77.75 28.5002C77.45 28.5002 77.2 28.4002 77 28.3502C76.8 28.3002 76.6 28.2002 76.4 28.1502C75.5 27.7502 74.85 27.1002 74.35 26.2002C73.85 25.3002 73.65 24.2502 73.65 23.0002C73.65 21.7502 73.75 21.7002 73.95 21.1002C74.15 20.5002 74.4 19.9502 74.7 19.4502C75.05 18.9502 75.45 18.5502 75.9 18.2002C76.35 17.8502 76.9 17.6002 77.45 17.4502C77.95 17.3002 78.5 17.2502 79.1 17.2502C79.7 17.2502 79.8 17.2502 80.05 17.2502C80.25 17.2502 80.55 17.3002 80.85 17.4002C80.95 17.3002 81.1 17.2502 81.25 17.2502C81.4 17.2502 81.6 17.2502 81.85 17.2502H82.15C82.5 17.2502 82.8 17.2502 83 17.2502C83.2 17.2502 83.4 17.2502 83.5 17.3502C83.6 17.4502 83.7 17.5502 83.7 17.7502C83.7 17.9502 83.7 18.2002 83.7 18.5502V26.1002H84.15C84.35 26.1002 84.5 26.1502 84.6 26.3002C84.7 26.4002 84.8 26.6002 84.8 26.7502V27.6002C84.8 27.7502 84.8 27.9002 84.7 27.9502C84.65 28.0502 84.5 28.1002 84.3 28.2002C84.3 28.2002 84.2 28.2002 84.05 28.3002C83.9 28.4002 83.75 28.3502 83.6 28.4002C83.4 28.4002 83.2 28.4002 83 28.4502C82.75 28.4502 82.55 28.4502 82.3 28.4502C81.7 28.4502 81.25 28.2002 81 27.9002C80.75 28.0002 80.55 28.1002 80.45 28.1502C79.85 28.4002 79.15 28.5002 78.4 28.5002H78.1C78 28.5002 77.9 28.5002 77.85 28.5002H77.75ZM78.3 25.7502C78.45 25.7502 78.65 25.7502 78.9 25.7502C79.15 25.7502 79.5 25.6502 79.9 25.5502C80.1 25.5002 80.25 25.4502 80.3 25.4002C80.35 25.4002 80.45 25.3502 80.5 25.3002V20.2002C80.3 20.2002 80.05 20.1502 79.8 20.1002C79.55 20.1002 79.3 20.1002 79 20.1002C78.55 20.1002 78.15 20.2002 77.85 20.4002C77.55 20.6002 77.35 20.8502 77.15 21.2002C77 21.5502 76.9 21.9002 76.85 22.3002C76.8 22.7002 76.8 23.1502 76.85 23.5502C76.85 23.8002 76.85 24.1002 76.9 24.3502C76.9 24.6002 77 24.8502 77.1 25.0502C77.2 25.2502 77.35 25.4502 77.5 25.5502C77.7 25.7002 77.9 25.8002 78.2 25.8002L78.3 25.7502ZM89.95 20.0502C89.4 20.0502 89.05 20.0502 88.8 20.2002C88.55 20.3502 88.5 20.5502 88.5 20.7502C88.5 20.9002 88.65 21.0002 88.9 21.0502C89.1 21.1002 89.3 21.1502 89.5 21.2002C89.7 21.2002 89.95 21.3002 90.2 21.3002C90.75 21.4002 91.25 21.5002 91.8 21.6502C92.35 21.8002 92.75 21.9502 93.1 22.1502C93.55 22.4002 93.9 22.7502 94.15 23.1502C94.4 23.5502 94.5 24.1002 94.5 24.8502C94.5 25.6002 94.45 26.0502 94.3 26.4502C94.15 26.9002 93.9 27.3002 93.5 27.6502C93.15 28.0002 92.65 28.3002 92.1 28.4502C91.65 28.6002 91.1 28.6502 90.35 28.6502C89.6 28.6502 89.2 28.6502 88.6 28.5502C88 28.4502 87.35 28.3502 86.8 28.1502C86.35 28.0002 86 27.9002 85.8 27.7502C85.6 27.6502 85.45 27.4502 85.45 27.1502C85.45 26.8502 85.5 26.7002 85.6 26.4002C85.8 25.9502 85.95 25.6502 86.05 25.4502C86.15 25.2502 86.35 25.2002 86.6 25.2002C86.85 25.2002 86.85 25.2002 87 25.2002C87.15 25.2002 87.3 25.2502 87.45 25.3002C88 25.4002 88.5 25.5002 89 25.5502C89.5 25.6002 89.9 25.6502 90.3 25.6502C90.7 25.6502 90.75 25.6502 90.9 25.6502C91.05 25.6502 91.15 25.6502 91.25 25.5502C91.35 25.5502 91.4 25.4002 91.4 25.3002C91.4 25.2002 91.4 25.0002 91.4 24.8002C91.4 24.6002 91.4 24.6002 91.3 24.5502C91.25 24.5002 91.1 24.4002 90.95 24.3502C90.75 24.3002 90.5 24.2502 90.15 24.1502C89.8 24.0502 89.35 24.0002 88.8 23.9002C87.95 23.7502 87.25 23.4502 86.7 23.0002C86.15 22.5502 85.8 22.0002 85.65 21.3502C85.65 21.2502 85.65 21.1502 85.6 21.0002C85.6 20.8502 85.6 20.7502 85.6 20.6002C85.6 19.6502 85.9 18.8502 86.45 18.2502C87.15 17.5002 88.15 17.1002 89.5 17.1502C90.7 17.1502 91.85 17.3002 92.95 17.5502H93.25C93.55 17.7002 93.75 17.8002 93.85 18.0002C93.95 18.1502 94 18.4002 94 18.6002C94 18.8002 94 18.9002 94 19.0002C94 19.1002 93.95 19.3002 93.9 19.5002C93.8 19.8002 93.7 20.0502 93.65 20.2002C93.6 20.3502 93.4 20.4002 93.1 20.4002C92.8 20.4002 92.7 20.4002 92.45 20.3002C92.05 20.2002 91.65 20.1502 91.2 20.1002C90.8 20.0502 90.35 20.0002 89.9 19.9502L89.95 20.0502ZM98.65 23.3502C98.65 23.7002 98.65 24.1002 98.65 24.4502C98.65 24.8002 98.75 25.1002 98.85 25.2502C98.95 25.4502 99.15 25.5502 99.4 25.6002C99.65 25.6002 99.95 25.6002 100.2 25.6002H100.65C100.85 25.6002 101 25.6002 101.15 25.6002C101.3 25.6002 101.4 25.7002 101.45 25.8002C101.55 25.9002 101.6 26.0002 101.65 26.1502C101.7 26.3002 101.8 26.5002 101.85 26.7002L101.95 27.0002C102 27.1502 102.05 27.3502 102.05 27.6002C102.05 27.8502 102 28.0002 101.85 28.1002C101.7 28.2002 101.45 28.3002 101.1 28.3502C100.9 28.4002 100.65 28.4502 100.45 28.4502C100.2 28.4502 100 28.4502 99.75 28.4502C99.05 28.4502 98.35 28.3002 97.7 28.0502C97.05 27.8002 96.55 27.4002 96.15 26.8002C95.9 26.3502 95.7 25.8502 95.65 25.2502C95.55 24.6502 95.55 24.0002 95.55 23.3002V15.3002C95.55 14.9502 95.55 14.7002 95.55 14.5502C95.55 14.3502 95.65 14.2502 95.75 14.1502C95.85 14.0502 96 14.0002 96.15 14.0002C96.35 14.0002 96.6 14.0002 96.9 14.0002H97.15C97.5 14.0002 97.75 14.0002 97.95 14.0002C98.15 14.0002 98.3 14.0502 98.4 14.1502C98.5 14.2502 98.55 14.3502 98.6 14.5502C98.65 14.7502 98.6 15.0002 98.6 15.3002V17.2502H100.7C101 17.2502 101.25 17.2502 101.4 17.2502C101.55 17.2502 101.7 17.3002 101.75 17.3502C101.8 17.4002 101.85 17.5502 101.9 17.7002C101.9 17.8502 101.9 18.1002 101.9 18.4002V18.5502C101.9 18.8002 101.9 19.0502 101.9 19.2002C101.9 19.3502 101.85 19.5502 101.75 19.7002C101.65 19.8502 101.55 19.9002 101.35 20.0002C101.15 20.0502 100.9 20.1002 100.55 20.1002H98.6V23.3002L98.65 23.3502ZM105.4 28.5002C104.1 28.5002 103 27.4502 103 26.1002C103 24.7502 104.05 23.7002 105.4 23.7002C106.75 23.7002 107.8 24.7502 107.8 26.1002C107.8 27.4502 106.75 28.5002 105.4 28.5002ZM105.4 24.0002C104.25 24.0002 103.3 24.9502 103.3 26.1002C103.3 27.2502 104.25 28.2002 105.4 28.2002C106.55 28.2002 107.5 27.2502 107.5 26.1002C107.5 24.9502 106.55 24.0002 105.4 24.0002ZM106.3 25.9502C106.15 26.1002 106 26.2002 105.8 26.2502L106.5 27.6002H106.15L105.5 26.3002H104.8V27.6002H104.5V24.5002H105.5C105.85 24.5002 106.15 24.6002 106.3 24.7502C106.45 24.9002 106.55 25.1502 106.55 25.4002C106.55 25.6502 106.5 25.8002 106.35 25.9502H106.3ZM105.45 26.0002C105.9 26.0002 106.15 25.7502 106.15 25.4002C106.15 25.0502 105.9 24.8002 105.45 24.8002H104.75V26.0502H105.45V26.0002Z" fill="white"/>
</g>
<defs>
<clipPath id="clip0_896_11449">
<rect width="108" height="36" fill="white"/>
</clipPath>
</defs>
</svg>
